# xmcd
#
# Track frame offsets:
#	150
#	17677
#	34547
#	53327
#	69165
#	86725
#	104600
#	121351
#	140040
#	159605
#	177066
#	196170
#	213403
#	234540
#	251461
#	268277
#	289121
#	309064
#
# Disc length: 4366 seconds
#
# Revision: 1
# Processed by: cddbd v1.5.2PL0 Copyright (c) Steve Scherf et al.
# Submitted via: audiograbber 1.83.01
#
DISCID=f4110c12
DTITLE=VVAA - Black Summer 2006 - CD2
DYEAR=2006
DGENRE=Urban
TTITLE0=R.Kelly feat. Wysin and Yandell - Burn It Up
TTITLE1=Black Eyed Peas - My Humps
TTITLE2=Floetry feat. Common - SupaStar
TTITLE3=Nate James - Set The Tome
TTITLE4=Omarion feat. Ray Cash - O
TTITLE5=Ray J - One Wish
TTITLE6=Tearirra Mari - No Daddy
TTITLE7=Lil' Kim - Whoa
TTITLE8=Fugees - Take It Easy
TTITLE9=T-Pain - I'm Sprung
TTITLE10=Eric Benél - Where Does The Love Go
TTITLE11=Ashanti - Still On It
TTITLE12=Dem Franchize Boyz - Oh I Think They Like Me?
TTITLE13=D4L - Laffy Taffy
TTITLE14=Twista feat. Trey Songz - Girl Tonite
TTITLE15=Urban Mystic - I Refuse
TTITLE16=Marques Houston - Naked
TTITLE17=Tony Braxton - Trippin' (Thant's The Way Love Works)
EXTD=
EXTT0=
EXTT1=
EXTT2=
EXTT3=
EXTT4=
EXTT5=
EXTT6=
EXTT7=
EXTT8=
EXTT9=
EXTT10=
EXTT11=
EXTT12=
EXTT13=
EXTT14=
EXTT15=
EXTT16=
EXTT17=
PLAYORDER=
